<svg width="640" height="480" viewBox="0 0 640 480" fill="none" xmlns="http://www.w3.org/2000/svg">
  <rect width="640" height="480" rx="64" fill="#FFF9EF"/>
  <circle cx="500" cy="104" r="58" fill="#FFD166"/>
  <path d="M98 356c65-85 126-85 183 0 66-96 142-96 229 0" stroke="#BFE8D4" stroke-width="54" stroke-linecap="round"/>
  <circle cx="306" cy="222" r="118" fill="#FFC3A1"/>
  <circle cx="306" cy="222" r="86" fill="#FFD166"/>
  <circle cx="237" cy="149" r="42" fill="#FFC3A1"/>
  <circle cx="375" cy="149" r="42" fill="#FFC3A1"/>
  <circle cx="274" cy="213" r="9" fill="#1F2A44"/>
  <circle cx="338" cy="213" r="9" fill="#1F2A44"/>
  <path d="M306 236c-11 16-24 16-35 0M306 236c11 16 24 16 35 0" stroke="#1F2A44" stroke-width="8" stroke-linecap="round"/>
  <circle cx="456" cy="300" r="34" fill="#CDB4DB"/>
  <circle cx="435" cy="276" r="14" fill="#CDB4DB"/>
  <circle cx="478" cy="276" r="14" fill="#CDB4DB"/>
  <circle cx="446" cy="295" r="5" fill="#1F2A44"/>
  <circle cx="466" cy="295" r="5" fill="#1F2A44"/>
  <path d="M456 308c8 8 18 8 26 0" stroke="#1F2A44" stroke-width="5" stroke-linecap="round"/>
</svg>
