<svg width="640" height="480" viewBox="0 0 640 480" fill="none" xmlns="http://www.w3.org/2000/svg">
  <rect width="640" height="480" rx="64" fill="#FFF9EF"/>
  <circle cx="512" cy="112" r="54" fill="#FFD166"/>
  <path d="M134 342c56-72 117-72 183 0 76-102 145-102 207 0" stroke="#A7D8F5" stroke-width="50" stroke-linecap="round"/>
  <ellipse cx="318" cy="238" rx="96" ry="82" fill="#A7D8F5"/>
  <path d="M240 239c-48-39-75-20-86 20 38 22 72 20 112-4" fill="#CDB4DB"/>
  <path d="M396 239c48-39 75-20 86 20-38 22-72 20-112-4" fill="#CDB4DB"/>
  <circle cx="290" cy="225" r="8" fill="#1F2A44"/>
  <circle cx="345" cy="225" r="8" fill="#1F2A44"/>
  <path d="M319 238l30 18-30 18-30-18 30-18Z" fill="#FFC3A1"/>
  <path d="M292 286c18 18 45 18 63 0" stroke="#1F2A44" stroke-width="7" stroke-linecap="round"/>
</svg>
