<svg width="640" height="480" viewBox="0 0 640 480" fill="none" xmlns="http://www.w3.org/2000/svg">
  <rect width="640" height="480" rx="64" fill="#FFF9EF"/>
  <circle cx="120" cy="112" r="48" fill="#A7D8F5"/>
  <path d="M94 352h452" stroke="#BFE8D4" stroke-width="48" stroke-linecap="round"/>
  <ellipse cx="250" cy="272" rx="104" ry="62" fill="#BFE8D4"/>
  <path d="M193 247c28-48 88-48 116 0" fill="#7DCFA6"/>
  <circle cx="354" cy="260" r="36" fill="#BFE8D4"/>
  <circle cx="366" cy="252" r="6" fill="#1F2A44"/>
  <path d="M360 272c13 9 28 7 39-3" stroke="#1F2A44" stroke-width="6" stroke-linecap="round"/>
  <ellipse cx="454" cy="231" rx="52" ry="68" fill="#FFC3A1"/>
  <path d="M426 172c-12-42 10-72 36-34M476 172c12-42-10-72-36-34" stroke="#FFC3A1" stroke-width="22" stroke-linecap="round"/>
  <circle cx="437" cy="224" r="6" fill="#1F2A44"/>
  <circle cx="471" cy="224" r="6" fill="#1F2A44"/>
  <path d="M444 250c20 13 42 10 57-6" stroke="#1F2A44" stroke-width="6" stroke-linecap="round"/>
</svg>
