<svg width="640" height="480" viewBox="0 0 640 480" fill="none" xmlns="http://www.w3.org/2000/svg">
  <rect width="640" height="480" rx="64" fill="#FFF9EF"/>
  <circle cx="472" cy="118" r="76" fill="#CDB4DB"/>
  <path d="M166 350c80-96 188-96 306 0" stroke="#A7D8F5" stroke-width="54" stroke-linecap="round"/>
  <path d="M196 112l17 35 39 6-28 27 7 39-35-18-35 18 7-39-28-27 39-6 17-35Z" fill="#FFD166"/>
  <path d="M384 178l11 23 25 4-18 18 4 25-22-12-22 12 4-25-18-18 25-4 11-23Z" fill="#FFD166"/>
  <rect x="228" y="226" width="184" height="128" rx="42" fill="#FFC3A1"/>
  <circle cx="284" cy="286" r="9" fill="#1F2A44"/>
  <circle cx="356" cy="286" r="9" fill="#1F2A44"/>
  <path d="M288 315c22 18 47 18 68 0" stroke="#1F2A44" stroke-width="8" stroke-linecap="round"/>
</svg>
